<svg width="167" height="56" viewBox="0 0 167 56" fill="none" xmlns="http://www.w3.org/2000/svg">
<g clip-path="url(#clip0_9_66)">
<path d="M146.888 40.5408C146.888 44.4671 143.661 47.6316 139.641 47.6316C135.621 47.6316 132.381 44.4789 132.381 40.5525C132.381 40.5408 132.381 40.5291 132.381 40.5057H123.729C123.729 40.5057 123.729 40.5408 123.729 40.5525C123.729 49.085 130.917 55.9883 139.653 55.9766C148.388 55.9766 155.552 49.0381 155.54 40.5057C155.54 40.4939 155.54 40.4822 155.54 40.4588H146.888C146.888 40.4588 146.888 40.4939 146.888 40.5174" fill="white"/>
<path d="M143.949 22.5149H167V14.041H135.273V20.7451V22.5149V33.7665H143.949V22.5149Z" fill="white"/>
<path d="M0 9.91544H6.53984L13.2357 28.4454L19.9915 9.91544H26.5314L16.3316 34.6806H10.1518L0 9.91544Z" fill="white"/>
<path d="M27.4434 22.2922C27.4434 14.463 32.9272 9.21222 41.195 9.21222C49.4628 9.21222 54.9467 14.463 54.9467 22.2922V23.429L54.4427 23.9213H33.6472C34.1992 27.8359 37.2471 30.4144 41.207 30.4144C44.195 30.4144 46.9909 28.7267 48.1549 26.2537H54.3467C52.6788 31.7036 47.3989 35.3721 41.207 35.3721C32.9392 35.3721 27.4554 30.1214 27.4554 22.2922M48.3589 18.9753C47.1949 15.9046 44.6029 14.1699 41.207 14.1699C37.8111 14.1699 35.2192 15.9046 34.0552 18.9753H48.3589Z" fill="white"/>
<path d="M57.5864 22.2922C57.5864 14.463 63.0703 9.21222 71.3381 9.21222C79.6059 9.21222 85.0898 14.463 85.0898 22.2922V23.429L84.5858 23.9213H63.7903C64.3423 27.8359 67.3902 30.4144 71.3501 30.4144C74.338 30.4144 77.134 28.7267 78.2979 26.2537H84.4898C82.8218 31.7036 77.5419 35.3721 71.3501 35.3721C63.0823 35.3721 57.5984 30.1214 57.5984 22.2922M78.5019 18.9753C77.3379 15.9046 74.746 14.1699 71.3501 14.1699C67.9542 14.1699 65.3622 15.9046 64.1983 18.9753H78.5019Z" fill="white"/>
<path d="M90.8738 14.8615H86.8179V9.90373H90.8738V7.17288C90.8738 2.85978 94.0177 -0.0117188 98.6856 -0.0117188C99.7536 -0.0117188 101.578 0.187528 102.285 0.679784V4.946H99.1896C97.6656 4.946 96.9576 5.63751 96.9576 7.126V9.90373H102.285V14.8615H96.9576V34.6806H90.8738V14.8615Z" fill="white"/>
<path d="M102.49 22.2922C102.49 14.463 107.974 9.21222 116.241 9.21222C124.509 9.21222 129.993 14.463 129.993 22.2922V23.429L129.489 23.9213H108.694C109.246 27.8359 112.294 30.4144 116.253 30.4144C119.241 30.4144 122.037 28.7267 123.201 26.2537H129.393C127.725 31.7036 122.445 35.3721 116.253 35.3721C107.986 35.3721 102.502 30.1214 102.502 22.2922M123.405 18.9753C122.241 15.9046 119.649 14.1699 116.253 14.1699C112.857 14.1699 110.266 15.9046 109.102 18.9753H123.405Z" fill="white"/>
</g>
<defs>
<clipPath id="clip0_9_66">
<rect width="167" height="56" fill="white"/>
</clipPath>
</defs>
</svg>
