<svg width="49" height="49" viewBox="0 0 49 49" fill="none" xmlns="http://www.w3.org/2000/svg">
<g clip-path="url(#clip0_20_3)">
<path d="M16.7302 17.7139H12.5915V22.4104H17.0678C17.8519 22.4104 18.5005 22.2237 19.0147 21.846C19.5238 21.4752 19.7703 20.8609 19.7703 20.0185C19.7703 19.5509 19.6889 19.165 19.5245 18.8651C19.3535 18.5654 19.1278 18.3306 18.8425 18.1666C18.5594 17.9958 18.2393 17.8768 17.868 17.8134C17.5037 17.7417 17.1213 17.7139 16.7302 17.7139Z" fill="#48EB92"/>
<path d="M17.401 25.4305H12.5916L12.5915 30.963H17.3126C17.7496 30.963 18.1637 30.9247 18.5533 30.8377C18.9491 30.7508 19.3004 30.6137 19.596 30.4108C19.892 30.2161 20.1364 29.9478 20.3147 29.6082C20.4936 29.2718 20.5796 28.835 20.5796 28.3062C20.5796 27.2708 20.2875 26.5351 19.7078 26.0887C19.1271 25.6485 18.3532 25.4305 17.401 25.4305Z" fill="#48EB92"/>
<path d="M35.8903 23.252C35.4158 22.7263 34.6105 22.4416 33.6292 22.4416C32.9909 22.4416 32.4632 22.5491 32.04 22.768C31.6265 22.9839 31.2866 23.2539 31.0273 23.5705C30.7695 23.8925 30.594 24.2323 30.492 24.5954C30.3887 24.9494 30.3283 25.2705 30.3098 25.5543H36.8112C36.7158 24.5358 36.3671 23.7815 35.8903 23.252Z" fill="#48EB92"/>
<path fill-rule="evenodd" clip-rule="evenodd" d="M1.33517 6.68862C0 9.30904 0 12.7394 0 19.6V29.4C0 36.2606 0 39.691 1.33517 42.3114C2.50962 44.6164 4.38363 46.4904 6.68862 47.6648C9.30904 49 12.7394 49 19.6 49H29.4C36.2606 49 39.691 49 42.3114 47.6648C44.6164 46.4904 46.4904 44.6164 47.6648 42.3114C49 39.691 49 36.2606 49 29.4V19.6C49 12.7394 49 9.30904 47.6648 6.68862C46.4904 4.38363 44.6164 2.50962 42.3114 1.33517C39.691 0 36.2606 0 29.4 0H19.6C12.7394 0 9.30904 0 6.68862 1.33517C4.38363 2.50962 2.50962 4.38363 1.33517 6.68862ZM8.16667 34.3852V14.2917L17.64 14.2918C18.6015 14.2918 19.4689 14.375 20.262 14.5466C21.0504 14.7137 21.7233 14.9926 22.2917 15.3748C22.8514 15.7579 23.2889 16.2673 23.6027 16.9083C23.9087 17.54 24.0621 18.3299 24.0621 19.2654C24.0621 20.2772 23.8325 21.122 23.3737 21.7981C22.9106 22.4718 22.2322 23.0252 21.3238 23.4555C22.5607 23.8103 23.4763 24.436 24.0834 25.3265C24.6938 26.2222 24.9919 27.2944 24.9919 28.5509C24.9919 29.5696 24.797 30.4475 24.4074 31.1852C24.0137 31.9323 23.4782 32.5379 22.8181 33.0049C22.1529 33.4756 21.3884 33.8225 20.5325 34.0476C19.686 34.272 18.8061 34.3852 17.906 34.3852H8.16667ZM29.4917 17.6223V15.6396H37.6372V17.6223H29.4917ZM30.7155 20.0175C31.6284 19.623 32.6352 19.424 33.75 19.424C34.9809 19.424 36.0583 19.6615 36.9822 20.1438C37.9031 20.6199 38.6584 21.2645 39.2512 22.0718C39.8446 22.8782 40.2659 23.7989 40.5297 24.8335C40.7914 25.8651 40.8831 26.944 40.808 28.0725H30.3098C30.3098 29.223 30.6984 30.3113 31.2989 30.8957C31.8974 31.4802 32.7623 31.7753 33.8829 31.7753C34.6891 31.7753 35.3863 31.5706 35.9709 31.1639C36.5494 30.7587 36.9019 30.3254 37.038 29.8753H40.5565C39.9908 31.6262 39.1329 32.876 37.9625 33.6284C36.8051 34.3845 35.3942 34.7617 33.75 34.7617C32.6038 34.7617 31.5726 34.5768 30.6462 34.2107C29.7207 33.8414 28.9476 33.3219 28.2969 32.6458C27.6629 31.9669 27.1705 31.164 26.8193 30.2217C26.4721 29.2832 26.2973 28.2456 26.2973 27.1203C26.2973 26.0322 26.4784 25.016 26.8339 24.0768C27.1966 23.1345 27.6987 22.3213 28.3583 21.6392C29.0191 20.9532 29.8029 20.4127 30.7155 20.0175Z" fill="#48EB92"/>
</g>
<defs>
<clipPath id="clip0_20_3">
<rect width="49" height="49" fill="white"/>
</clipPath>
</defs>
</svg>
