<svg width="48" height="48" viewBox="0 0 48 48" fill="none" xmlns="http://www.w3.org/2000/svg">
<g clip-path="url(#clip0_20_7)">
<path fill-rule="evenodd" clip-rule="evenodd" d="M0 19.2C0 12.4794 0 9.11905 1.30792 6.55211C2.4584 4.29417 4.29417 2.4584 6.55211 1.30792C9.11905 0 12.4794 0 19.2 0H28.8C35.5206 0 38.8809 0 41.4479 1.30792C43.7058 2.4584 45.5416 4.29417 46.6921 6.55211C48 9.11905 48 12.4794 48 19.2V28.8C48 35.5206 48 38.8809 46.6921 41.4479C45.5416 43.7058 43.7058 45.5416 41.4479 46.6921C38.8809 48 35.5206 48 28.8 48H19.2C12.4794 48 9.11905 48 6.55211 46.6921C4.29417 45.5416 2.4584 43.7058 1.30792 41.4479C0 38.8809 0 35.5206 0 28.8V19.2ZM6 24C6 14.0595 14.055 6 24 6C33.9405 6 42 14.0595 42 24C42 31.9425 36.8475 38.6925 29.646 41.0535C28.7235 41.2335 28.4085 40.671 28.4085 40.1985C28.4085 40.0054 28.411 39.6652 28.4142 39.2093C28.4209 38.2843 28.431 36.8833 28.431 35.2695C28.431 33.5835 27.846 32.4795 27.216 31.9395C31.221 31.497 35.4285 29.9745 35.4285 23.0595C35.4285 21.0945 34.731 19.4895 33.5835 18.2295C33.7635 17.775 34.371 15.945 33.4035 13.4655C33.4035 13.4655 31.896 12.9825 28.476 15.3105C27.036 14.91 25.506 14.712 23.976 14.703C22.446 14.712 20.916 14.91 19.476 15.3105C16.0335 12.9825 14.526 13.4655 14.526 13.4655C13.5585 15.945 14.166 17.775 14.3685 18.2295C13.2135 19.4895 12.516 21.0945 12.516 23.0595C12.516 29.9565 16.7175 31.5045 20.715 31.9545C20.2005 32.4045 19.737 33.198 19.575 34.362C18.546 34.8225 15.9375 35.6175 14.3325 32.865C14.3325 32.865 13.383 31.137 11.5755 31.011C11.5755 31.011 9.819 30.9885 11.4495 32.1045C11.4495 32.1045 12.633 32.6595 13.452 34.737C13.452 34.737 14.508 38.238 19.515 37.152C19.5192 37.9849 19.5256 38.7046 19.5306 39.2531C19.5345 39.6923 19.5375 40.0219 19.5375 40.212C19.5375 40.6905 19.2075 41.247 18.3075 41.0775C11.157 38.7 6 31.9545 6 24Z" fill="#48EB92"/>
</g>
<defs>
<clipPath id="clip0_20_7">
<rect width="48" height="48" fill="white"/>
</clipPath>
</defs>
</svg>
