<svg width="49" height="49" viewBox="0 0 49 49" fill="none" xmlns="http://www.w3.org/2000/svg">
<g clip-path="url(#clip0_20_5)">
<path fill-rule="evenodd" clip-rule="evenodd" d="M1.33517 6.68862C0 9.30904 0 12.7394 0 19.6V29.4C0 36.2606 0 39.691 1.33517 42.3114C2.50962 44.6164 4.38363 46.4904 6.68862 47.6648C9.30904 49 12.7394 49 19.6 49H29.4C36.2606 49 39.691 49 42.3114 47.6648C44.6164 46.4904 46.4904 44.6164 47.6648 42.3114C49 39.691 49 36.2606 49 29.4V19.6C49 12.7394 49 9.30904 47.6648 6.68862C46.4904 4.38363 44.6164 2.50962 42.3114 1.33517C39.691 0 36.2606 0 29.4 0H19.6C12.7394 0 9.30904 0 6.68862 1.33517C4.38363 2.50962 2.50962 4.38363 1.33517 6.68862ZM8.70625 40.8333H15.4788V19.0235H8.70625V40.8333ZM8.16667 12.0889C8.16667 14.2546 9.92323 16.0484 12.0889 16.0484C14.2538 16.0484 16.011 14.2546 16.011 12.0889C16.011 11.0487 15.5978 10.051 14.8623 9.31547C14.1267 8.57991 13.1291 8.16667 12.0889 8.16667C11.0486 8.16667 10.051 8.57991 9.31545 9.31547C8.5799 10.051 8.16667 11.0487 8.16667 12.0889ZM34.0681 40.8333H40.8333V28.8529C40.8333 22.9902 39.5733 18.4766 32.7192 18.4766C29.4241 18.4766 27.2154 20.285 26.3113 21.9985H26.2165V19.0235H19.721V40.8333H26.4863V30.0341C26.4863 27.1903 27.0258 24.4413 30.547 24.4413C34.0171 24.4413 34.0681 27.6862 34.0681 30.2164V40.8333Z" fill="#48EB92"/>
</g>
<defs>
<clipPath id="clip0_20_5">
<rect width="49" height="49" fill="white"/>
</clipPath>
</defs>
</svg>
