<?xml version="1.0" encoding="UTF-8"?><svg id="Layer_1" xmlns="http://www.w3.org/2000/svg" xmlns:xlink="http://www.w3.org/1999/xlink" viewBox="0 0 96 96"><defs><style>.cls-1{fill:url(#linear-gradient-2);}.cls-2{fill:url(#linear-gradient);}</style><linearGradient id="linear-gradient" x1="25.59" y1="23.82" x2="95.06" y2="162.35" gradientUnits="userSpaceOnUse"><stop offset="0" stop-color="#48eb92"/><stop offset="1" stop-color="#000"/></linearGradient><linearGradient id="linear-gradient-2" x1="33.81" y1="19.7" x2="103.28" y2="158.23" xlink:href="#linear-gradient"/></defs><path class="cls-2" d="m37.73,30.76h-.17c-.83,3.3-1.65,7.51-2.56,10.72l-3.3,11.8h12.29l-3.46-11.8c-.99-3.3-1.98-7.42-2.8-10.72Z"/><path class="cls-1" d="m88,0H8C3.58,0,0,3.58,0,8v80c0,4.42,3.58,8,8,8h80c4.42,0,8-3.58,8-8V8c0-4.42-3.58-8-8-8Zm-37.9,76.95l-4.29-14.27h-15.92l-3.96,14.27h-13.03L29.89,21.36h16.5l17.24,55.6h-13.53Zm32.59,0h-12.54v-40.34h12.54v40.34Zm-6.35-45.29c-3.96,0-6.6-2.8-6.52-6.27-.08-3.63,2.56-6.35,6.6-6.35s6.6,2.72,6.68,6.35c0,3.46-2.64,6.27-6.76,6.27Z"/></svg>