<?xml version="1.0" encoding="utf-8"?>
<!-- Generator: Adobe Illustrator 27.3.1, SVG Export Plug-In . SVG Version: 6.00 Build 0)  -->
<svg version="1.1" id="Layer_1" xmlns="http://www.w3.org/2000/svg" xmlns:xlink="http://www.w3.org/1999/xlink" x="0px" y="0px"
	 viewBox="0 0 96 96" style="enable-background:new 0 0 96 96;" xml:space="preserve">
<style type="text/css">
	.st0{fill:#48EB92;}
</style>
<path class="st0" d="M37.7,30.8h-0.2c-0.8,3.3-1.7,7.5-2.6,10.7l-3.3,11.8H44l-3.5-11.8C39.5,38.2,38.6,34.1,37.7,30.8z"/>
<path class="st0" d="M88,0H8C3.6,0,0,3.6,0,8v80c0,4.4,3.6,8,8,8h80c4.4,0,8-3.6,8-8V8C96,3.6,92.4,0,88,0z M50.1,76.9l-4.3-14.3
	H29.9l-4,14.3h-13l17-55.6h16.5L63.6,77L50.1,76.9L50.1,76.9z M82.7,76.9H70.2V36.6h12.5V76.9z M76.3,31.7c-4,0-6.6-2.8-6.5-6.3
	c-0.1-3.6,2.6-6.4,6.6-6.4s6.6,2.7,6.7,6.4C83.1,28.8,80.5,31.7,76.3,31.7z"/>
</svg>
