<?xml version="1.0" encoding="UTF-8"?><svg id="Layer_1" xmlns="http://www.w3.org/2000/svg" xmlns:xlink="http://www.w3.org/1999/xlink" viewBox="0 0 96 96"><defs><style>.cls-1{fill:url(#linear-gradient-2);fill-rule:evenodd;}.cls-2{fill:url(#linear-gradient);}</style><linearGradient id="linear-gradient" x1="33.81" y1="19.7" x2="103.28" y2="158.23" gradientUnits="userSpaceOnUse"><stop offset="0" stop-color="#48eb92"/><stop offset="1" stop-color="#000"/></linearGradient><linearGradient id="linear-gradient-2" x1="41.6" y1="42.6" x2="73.87" y2="84.27" gradientUnits="userSpaceOnUse"><stop offset="0" stop-color="#48eb92"/><stop offset="1" stop-color="#000"/></linearGradient></defs><path class="cls-2" d="m88,0H8C3.58,0,0,3.58,0,8v80c0,4.42,3.58,8,8,8h80c4.42,0,8-3.58,8-8V8c0-4.42-3.58-8-8-8Zm-34.12,17.45h4.65l-4.65-5.04v-2.4h9.39v2.81h-4.47l4.65,5.04v2.4h-9.57v-2.81Zm-11.29,0h4.65l-4.65-5.04v-2.4h9.39v2.81h-4.47l4.65,5.04v2.4h-9.57v-2.81Zm-10.04-7.45h8.25v2.93h-4.82v4.4h4.82v2.93h-8.25v-10.26Zm37.46,69.89l-22.05,6.11-21.99-6.1-4.9-54.96h53.84l-4.9,54.95Z"/><polygon class="cls-1" points="64.9 35.7 48.02 35.7 48 35.7 31.14 35.7 31.3 37.51 31.61 40.93 31.74 42.44 31.76 42.44 48 42.44 48.02 42.44 57.54 42.44 56.92 49.34 48 49.34 48 49.34 39.99 49.34 40.15 51.15 40.45 54.57 40.59 56.08 40.61 56.08 48 56.08 48 56.08 56.32 56.08 55.53 64.83 48.02 66.85 48.02 66.85 48.01 66.86 40.5 64.83 40.02 59.45 36.38 59.45 33.26 59.45 34.2 70.04 48.01 73.87 48.04 73.86 48.04 73.86 61.83 70.04 61.94 68.9 63.08 56.08 63.08 56.08 63.09 56.04 63.11 55.8 63.11 55.8 64.74 37.51 64.9 35.7"/></svg>