<?xml version="1.0" encoding="utf-8"?>
<!-- Generator: Adobe Illustrator 27.3.1, SVG Export Plug-In . SVG Version: 6.00 Build 0)  -->
<svg version="1.1" id="Layer_1" xmlns="http://www.w3.org/2000/svg" xmlns:xlink="http://www.w3.org/1999/xlink" x="0px" y="0px"
	 viewBox="0 0 96 96" style="enable-background:new 0 0 96 96;" xml:space="preserve">
<style type="text/css">
	.st0{fill:#48EB92;}
	.st1{fill-rule:evenodd;clip-rule:evenodd;fill:#48EB92;}
</style>
<path class="st0" d="M88,0H8C3.6,0,0,3.6,0,8v80c0,4.4,3.6,8,8,8h80c4.4,0,8-3.6,8-8V8C96,3.6,92.4,0,88,0z M53.9,17.5h4.7l-4.7-5
	V10h9.4v2.8h-4.5l4.7,5v2.4h-9.6V17.5z M42.6,17.5h4.7l-4.7-5V10H52v2.8h-4.5l4.7,5v2.4h-9.6V17.5z M32.5,10h8.2v2.9H36v4.4h4.8v2.9
	h-8.2C32.5,20.3,32.5,10,32.5,10z M70,79.9L48,86l-22-6.1l-4.9-55h53.8L70,79.9z"/>
<polygon class="st1" points="64.9,35.7 48,35.7 48,35.7 31.1,35.7 31.3,37.5 31.6,40.9 31.7,42.4 31.8,42.4 48,42.4 48,42.4 
	57.5,42.4 56.9,49.3 48,49.3 48,49.3 40,49.3 40.2,51.2 40.5,54.6 40.6,56.1 40.6,56.1 48,56.1 48,56.1 56.3,56.1 55.5,64.8 
	48,66.8 48,66.8 48,66.9 40.5,64.8 40,59.5 36.4,59.5 33.3,59.5 34.2,70 48,73.9 48,73.9 48,73.9 61.8,70 61.9,68.9 63.1,56.1 
	63.1,56.1 63.1,56 63.1,55.8 63.1,55.8 64.7,37.5 "/>
</svg>
