<?xml version="1.0" encoding="utf-8"?>
<!-- Generator: Adobe Illustrator 27.3.1, SVG Export Plug-In . SVG Version: 6.00 Build 0)  -->
<svg version="1.1" id="Layer_1" xmlns="http://www.w3.org/2000/svg" xmlns:xlink="http://www.w3.org/1999/xlink" x="0px" y="0px"
	 viewBox="0 0 96 96" style="enable-background:new 0 0 96 96;" xml:space="preserve">
<style type="text/css">
	.st0{fill:#48EB92;}
</style>
<path class="st0" d="M48,47.9c0.1-6.9,5.7-12.5,12.7-12.5H48V47.9z"/>
<path class="st0" d="M88,0H8C3.6,0,0,3.6,0,8v80c0,4.4,3.6,8,8,8h80c4.4,0,8-3.6,8-8V8C96,3.6,92.4,0,88,0z M73.3,48
	c0,7-5.7,12.7-12.7,12.7S48.1,55.1,48,48.1v25.2c0,7-5.7,12.7-12.7,12.7s-12.7-5.7-12.7-12.7s5.7-12.7,12.7-12.7
	c-7,0-12.7-5.7-12.7-12.7s5.7-12.7,12.7-12.7c-7,0-12.7-5.7-12.7-12.7S28.3,10,35.3,10h25.3c7,0,12.7,5.7,12.7,12.7
	s-5.7,12.7-12.7,12.7C67.6,35.3,73.3,41,73.3,48L73.3,48z"/>
</svg>
