<?xml version="1.0" encoding="UTF-8"?><svg id="Layer_1" xmlns="http://www.w3.org/2000/svg" xmlns:xlink="http://www.w3.org/1999/xlink" viewBox="0 0 96 96"><defs><style>.cls-1{fill:url(#linear-gradient-2);}.cls-2{fill:url(#linear-gradient);}</style><linearGradient id="linear-gradient" x1="41.44" y1="15.87" x2="110.9" y2="154.4" gradientUnits="userSpaceOnUse"><stop offset="0" stop-color="#48eb92"/><stop offset="1" stop-color="#000"/></linearGradient><linearGradient id="linear-gradient-2" x1="33.81" y1="19.7" x2="103.28" y2="158.23" xlink:href="#linear-gradient"/></defs><path class="cls-2" d="m48,47.86c.08-6.93,5.72-12.52,12.67-12.52h-12.67v12.52Z"/><path class="cls-1" d="m88,0H8C3.58,0,0,3.58,0,8v80c0,4.42,3.58,8,8,8h80c4.42,0,8-3.58,8-8V8c0-4.42-3.58-8-8-8Zm-14.67,48c0,6.99-5.67,12.67-12.67,12.67s-12.59-5.6-12.67-12.52v25.19c0,6.99-5.67,12.67-12.67,12.67s-12.67-5.67-12.67-12.67,5.67-12.67,12.67-12.67c-6.99,0-12.67-5.67-12.67-12.67s5.67-12.67,12.67-12.67c-6.99,0-12.67-5.67-12.67-12.67s5.67-12.67,12.67-12.67h25.33c6.99,0,12.67,5.67,12.67,12.67s-5.67,12.67-12.67,12.67c6.99,0,12.67,5.67,12.67,12.67Z"/></svg>