<?xml version="1.0" encoding="UTF-8"?><svg id="Layer_1" xmlns="http://www.w3.org/2000/svg" xmlns:xlink="http://www.w3.org/1999/xlink" viewBox="0 0 96 96"><defs><style>.cls-1{fill:url(#linear-gradient-2);fill-rule:evenodd;}.cls-2{fill:url(#linear-gradient);}</style><linearGradient id="linear-gradient" x1="33.81" y1="19.7" x2="103.28" y2="158.23" gradientUnits="userSpaceOnUse"><stop offset="0" stop-color="#48eb92"/><stop offset="1" stop-color="#000"/></linearGradient><linearGradient id="linear-gradient-2" x1="37.04" y1="39.29" x2="90.65" y2="99.68" xlink:href="#linear-gradient"/></defs><path class="cls-2" d="m88,0H8C3.58,0,0,3.58,0,8v80c0,4.42,3.58,8,8,8h80c4.42,0,8-3.58,8-8V8c0-4.42-3.58-8-8-8Zm-26.24,10h3.43v6.86h4.82v3.39h-8.24v-10.25Zm-13.24,0h3.57l2.2,3.6,2.2-3.6h3.57v10.25h-3.41v-5.08l-2.36,3.64h-.06l-2.36-3.64v5.08h-3.35v-10.25Zm-10.96,0h9.46v3.4h-3.02v6.85h-3.43v-6.85h-3.02v-3.4Zm-11.47,0h3.43v3.38h3.13v-3.38h3.43v10.25h-3.43v-3.43h-3.13v3.43h-3.43v-10.25Zm43.93,69.89l-22.05,6.11-21.99-6.1-4.9-54.96h53.84l-4.91,54.95Z"/><polygon class="cls-1" points="48 36.17 47.98 36.17 31.1 36.17 31.26 37.98 32.92 56.55 47.98 56.55 48 56.55 56.28 56.55 55.49 65.3 47.98 67.33 47.98 67.33 47.97 67.33 40.46 65.3 39.98 59.92 36.34 59.92 33.22 59.92 34.16 70.51 47.97 74.34 48 74.33 48 74.33 61.8 70.51 61.9 69.37 63.48 51.62 63.65 49.81 61.83 49.81 48 49.81 47.98 49.81 39.08 49.81 38.46 42.91 47.98 42.91 48 42.91 64.24 42.91 64.26 42.91 64.39 41.4 64.7 37.98 64.86 36.17 48 36.17"/></svg>