<?xml version="1.0" encoding="utf-8"?>
<!-- Generator: Adobe Illustrator 27.3.1, SVG Export Plug-In . SVG Version: 6.00 Build 0)  -->
<svg version="1.1" id="Layer_1" xmlns="http://www.w3.org/2000/svg" xmlns:xlink="http://www.w3.org/1999/xlink" x="0px" y="0px"
	 viewBox="0 0 96 96" style="enable-background:new 0 0 96 96;" xml:space="preserve">
<style type="text/css">
	.st0{fill:#48EB92;}
</style>
<path class="st0" d="M58.8,45.2c-5.7,0-8.7,5.1-8.7,11.5c0,6.8,3.4,11.1,8.6,11.1c3.6,0,6.5-2.5,7.3-6c0.2-0.9,0.3-1.8,0.3-2.9v-5.3
	c0-0.7-0.1-1.6-0.2-2.2C65.4,48,62.7,45.2,58.8,45.2z"/>
<path class="st0" d="M88,0H8C3.6,0,0,3.6,0,8v80c0,4.4,3.6,8,8,8h80c4.4,0,8-3.6,8-8V8C96,3.6,92.4,0,88,0z M29.5,76.8H16.9V21.2
	h12.6V76.8z M68,76.8l-0.6-5.9h-0.2c-2.6,4.5-7.4,6.8-12.6,6.8c-9.6,0-17.2-8.2-17.2-20.7c-0.1-13.6,8.4-21.5,18.1-21.5
	c5,0,8.8,1.7,10.6,4.5h0.2V18.3h12.5v46.5c0,4.5,0.2,9.3,0.3,12C79.1,76.8,68,76.8,68,76.8z"/>
</svg>
