<?xml version="1.0" encoding="UTF-8"?><svg id="Layer_1" xmlns="http://www.w3.org/2000/svg" xmlns:xlink="http://www.w3.org/1999/xlink" viewBox="0 0 96 96"><defs><style>.cls-1{fill:url(#linear-gradient-2);}.cls-2{fill:url(#linear-gradient);}</style><linearGradient id="linear-gradient" x1="38.83" y1="17.18" x2="108.3" y2="155.71" gradientUnits="userSpaceOnUse"><stop offset="0" stop-color="#48eb92"/><stop offset="1" stop-color="#000"/></linearGradient><linearGradient id="linear-gradient-2" x1="33.81" y1="19.7" x2="103.28" y2="158.23" xlink:href="#linear-gradient"/></defs><path class="cls-2" d="m58.77,45.15c-5.69,0-8.66,5.11-8.66,11.47,0,6.85,3.38,11.14,8.58,11.14,3.63,0,6.52-2.47,7.26-6.02.25-.91.33-1.81.33-2.89v-5.28c0-.66-.08-1.57-.17-2.23-.74-3.38-3.46-6.19-7.34-6.19Z"/><path class="cls-1" d="m88,0H8C3.58,0,0,3.58,0,8v80c0,4.42,3.58,8,8,8h80c4.42,0,8-3.58,8-8V8c0-4.42-3.58-8-8-8ZM29.48,76.83h-12.62V21.23h12.62v55.6Zm38.52,0l-.58-5.94h-.17c-2.56,4.54-7.42,6.85-12.62,6.85-9.57,0-17.24-8.17-17.24-20.7-.08-13.61,8.41-21.45,18.07-21.45,4.95,0,8.83,1.73,10.64,4.54h.17v-21.86h12.54v46.52c0,4.54.17,9.32.33,12.04h-11.14Z"/></svg>