<?xml version="1.0" encoding="utf-8"?>
<!-- Generator: Adobe Illustrator 27.3.1, SVG Export Plug-In . SVG Version: 6.00 Build 0)  -->
<svg version="1.1" id="Layer_1" xmlns="http://www.w3.org/2000/svg" xmlns:xlink="http://www.w3.org/1999/xlink" x="0px" y="0px"
	 viewBox="0 0 96 96" style="enable-background:new 0 0 96 96;" xml:space="preserve">
<style type="text/css">
	.st0{fill:#48EB92;}
</style>
<path class="st0" d="M28.6,29.1c-2.6,0-4.3,0.2-5.2,0.5V46c1.1,0.2,2.4,0.3,4.2,0.3c6.7,0,10.8-3.4,10.8-9.1
	C38.5,32.1,34.9,29.1,28.6,29.1L28.6,29.1z"/>
<path class="st0" d="M88,0H8C3.6,0,0,3.6,0,8v80c0,4.4,3.6,8,8,8h80c4.4,0,8-3.6,8-8V8C96,3.6,92.4,0,88,0z M45.8,50.1
	c-4.3,4-10.6,5.9-18.1,5.9c-1.6,0-3.1-0.1-4.3-0.2v19.9H11V20.7c3.9-0.7,9.3-1.2,17-1.2s13.3,1.5,17,4.4c3.5,2.8,5.9,7.4,5.9,12.9
	S49.1,47,45.8,50.1L45.8,50.1z M67.5,76.4c-5.3,0-10-1.2-13-2.8l2.2-9c2.3,1.4,7.1,3.1,10.8,3.1s5.4-1.3,5.4-3.4s-1.2-3-5.9-4.6
	c-8.3-2.8-11.5-7.3-11.5-12.1c0-7.5,6.4-13.2,16.4-13.2c4.7,0,8.9,1.1,11.4,2.3L81,45.3c-1.8-1-5.3-2.3-8.7-2.3
	c-3.1,0-4.8,1.2-4.8,3.3c0,1.9,1.6,2.9,6.5,4.6c7.7,2.6,10.9,6.5,11,12.5C85,70.9,79.1,76.4,67.5,76.4L67.5,76.4z"/>
</svg>
