<?xml version="1.0" encoding="UTF-8"?><svg id="Layer_1" xmlns="http://www.w3.org/2000/svg" xmlns:xlink="http://www.w3.org/1999/xlink" viewBox="0 0 96 96"><defs><style>.cls-1{fill:url(#linear-gradient-2);}.cls-2{fill:url(#linear-gradient);}</style><linearGradient id="linear-gradient" x1="23.19" y1="25.02" x2="92.66" y2="163.55" gradientUnits="userSpaceOnUse"><stop offset="0" stop-color="#48eb92"/><stop offset="1" stop-color="#000"/></linearGradient><linearGradient id="linear-gradient-2" x1="33.81" y1="19.7" x2="103.28" y2="158.23" xlink:href="#linear-gradient"/></defs><path class="cls-2" d="m28.65,29.07c-2.56,0-4.29.25-5.2.5v16.42c1.07.25,2.39.33,4.21.33,6.68,0,10.81-3.38,10.81-9.07,0-5.11-3.55-8.17-9.82-8.17Z"/><path class="cls-1" d="m88,0H8C3.58,0,0,3.58,0,8v80c0,4.42,3.58,8,8,8h80c4.42,0,8-3.58,8-8V8c0-4.42-3.58-8-8-8Zm-42.19,50.1c-4.29,4.04-10.64,5.86-18.07,5.86-1.65,0-3.13-.08-4.29-.25v19.88h-12.46V20.74c3.88-.66,9.32-1.16,16.99-1.16s13.28,1.48,16.99,4.45c3.55,2.8,5.94,7.42,5.94,12.87s-1.82,10.06-5.11,13.2Zm21.7,26.31c-5.28,0-9.98-1.16-13.03-2.8l2.23-8.99c2.31,1.4,7.09,3.05,10.81,3.05s5.36-1.32,5.36-3.38-1.24-3.05-5.94-4.62c-8.33-2.8-11.55-7.34-11.47-12.13,0-7.51,6.43-13.2,16.42-13.2,4.7,0,8.91,1.07,11.38,2.31l-2.23,8.66c-1.81-.99-5.28-2.31-8.74-2.31-3.05,0-4.78,1.24-4.78,3.3,0,1.9,1.57,2.89,6.52,4.62,7.67,2.64,10.89,6.52,10.97,12.46,0,7.51-5.94,13.03-17.49,13.03Z"/></svg>